<?xml version="1.0" encoding="UTF-8" standalone="no"?>
<!-- Created with Inkscape (http://www.inkscape.org/) -->

<svg
   xmlns:dc="http://purl.org/dc/elements/1.1/"
   xmlns:cc="http://creativecommons.org/ns#"
   xmlns:rdf="http://www.w3.org/1999/02/22-rdf-syntax-ns#"
   xmlns:svg="http://www.w3.org/2000/svg"
   xmlns="http://www.w3.org/2000/svg"
   xmlns:sodipodi="http://sodipodi.sourceforge.net/DTD/sodipodi-0.dtd"
   xmlns:inkscape="http://www.inkscape.org/namespaces/inkscape"
   width="295.45612mm"
   height="49.388889mm"
   viewBox="0 0 1046.8918 175"
   id="svg2"
   version="1.1"
   inkscape:version="0.92.5 (2060ec1f9f, 2020-04-08)"
   sodipodi:docname="logo-alltak.svg">
  <defs
     id="defs4">
    <filter
       style="color-interpolation-filters:sRGB"
       height="1.4"
       width="1.4"
       y="-0.2"
       x="-0.2"
       inkscape:label="Outline"
       id="filter5409">
      <feGaussianBlur
         in="SourceAlpha"
         stdDeviation="4"
         result="blur1"
         id="feGaussianBlur5411" />
      <feComposite
         in="blur1"
         in2="SourceGraphic"
         operator="out"
         result="composite1"
         id="feComposite5413" />
      <feColorMatrix
         values="1 0 0 0 0 0 1 0 0 0 0 0 1 0 0 0 0 0 100 -1 "
         result="colormatrix1"
         id="feColorMatrix5415" />
      <feGaussianBlur
         stdDeviation="0.2"
         result="blur2"
         id="feGaussianBlur5417" />
      <feComposite
         in="blur2"
         in2="blur2"
         operator="over"
         result="composite2"
         id="feComposite5419" />
      <feColorMatrix
         values="1 0 0 0 0 0 1 0 0 0 0 0 1 0 0 0 0 0 40 -5 "
         result="colormatrix2"
         id="feColorMatrix5421" />
      <feGaussianBlur
         stdDeviation="1"
         result="blur3"
         id="feGaussianBlur5423" />
      <feColorMatrix
         values="1 0 0 0 0 0 1 0 0 0 0 0 1 0 0 0 0 0 5 -1 "
         result="colormatrix3"
         id="feColorMatrix5425" />
      <feFlood
         flood-opacity="1"
         flood-color="rgb(0,0,0)"
         result="flood"
         id="feFlood5427" />
      <feComposite
         in="flood"
         in2="colormatrix3"
         operator="in"
         result="composite3"
         id="feComposite5429" />
      <feComposite
         in="SourceGraphic"
         in2="colormatrix3"
         operator="out"
         result="composite4"
         id="feComposite5431" />
      <feComposite
         in="composite4"
         in2="composite3"
         k2="1"
         k3="1"
         operator="arithmetic"
         result="composite5"
         id="feComposite5433"
         k1="0"
         k4="0" />
    </filter>
    <filter
       style="color-interpolation-filters:sRGB"
       height="1.4"
       width="1.4"
       y="-0.2"
       x="-0.2"
       inkscape:label="Outline"
       id="filter5409-8">
      <feGaussianBlur
         in="SourceAlpha"
         stdDeviation="4"
         result="blur1"
         id="feGaussianBlur5411-6" />
      <feComposite
         in="blur1"
         in2="SourceGraphic"
         operator="out"
         result="composite1"
         id="feComposite5413-0" />
      <feColorMatrix
         values="1 0 0 0 0 0 1 0 0 0 0 0 1 0 0 0 0 0 100 -1 "
         result="colormatrix1"
         id="feColorMatrix5415-8" />
      <feGaussianBlur
         stdDeviation="0.2"
         result="blur2"
         id="feGaussianBlur5417-9" />
      <feComposite
         in="blur2"
         in2="blur2"
         operator="over"
         result="composite2"
         id="feComposite5419-2" />
      <feColorMatrix
         values="1 0 0 0 0 0 1 0 0 0 0 0 1 0 0 0 0 0 40 -5 "
         result="colormatrix2"
         id="feColorMatrix5421-2" />
      <feGaussianBlur
         stdDeviation="1"
         result="blur3"
         id="feGaussianBlur5423-3" />
      <feColorMatrix
         values="1 0 0 0 0 0 1 0 0 0 0 0 1 0 0 0 0 0 5 -1 "
         result="colormatrix3"
         id="feColorMatrix5425-1" />
      <feFlood
         flood-opacity="1"
         flood-color="rgb(0,0,0)"
         result="flood"
         id="feFlood5427-8" />
      <feComposite
         in="flood"
         in2="colormatrix3"
         operator="in"
         result="composite3"
         id="feComposite5429-3" />
      <feComposite
         in="SourceGraphic"
         in2="colormatrix3"
         operator="out"
         result="composite4"
         id="feComposite5431-4" />
      <feComposite
         k4="0"
         k1="0"
         in="composite4"
         in2="composite3"
         k2="1"
         k3="1"
         operator="arithmetic"
         result="composite5"
         id="feComposite5433-2" />
    </filter>
  </defs>
  <sodipodi:namedview
     id="base"
     pagecolor="#ffffff"
     bordercolor="#666666"
     borderopacity="1.0"
     inkscape:pageopacity="0.0"
     inkscape:pageshadow="2"
     inkscape:zoom="0.40432847"
     inkscape:cx="271.67487"
     inkscape:cy="-145.45327"
     inkscape:document-units="px"
     inkscape:current-layer="layer1"
     showgrid="false"
     inkscape:window-width="1564"
     inkscape:window-height="872"
     inkscape:window-x="36"
     inkscape:window-y="0"
     inkscape:window-maximized="1"
     fit-margin-top="0"
     fit-margin-left="0"
     fit-margin-right="0"
     fit-margin-bottom="0" />
  <metadata
     id="metadata7">
    <rdf:RDF>
      <cc:Work
         rdf:about="">
        <dc:format>image/svg+xml</dc:format>
        <dc:type
           rdf:resource="http://purl.org/dc/dcmitype/StillImage" />
        <dc:title></dc:title>
      </cc:Work>
    </rdf:RDF>
  </metadata>
  <g
     inkscape:label="Camada 1"
     inkscape:groupmode="layer"
     id="layer1"
     transform="translate(-168.5519,-453.36259)">
    <g
       id="g4412"
       transform="translate(164.57143,-131.42857)">
      <g
         transform="translate(-1.4285714,2.8571428)"
         id="text4165"
         style="font-style:normal;font-weight:normal;font-size:17.5px;line-height:125%;font-family:sans-serif;letter-spacing:0px;word-spacing:0px;fill:#0000ff;fill-opacity:1;stroke:none;stroke-width:1px;stroke-linecap:butt;stroke-linejoin:miter;stroke-opacity:1">
        <path
           sodipodi:nodetypes="scscsccsccccscscccccccccscssssssssss"
           inkscape:connector-curvature="0"
           d="m 1017.2079,615.37555 c 2.2156,0 3.7995,-0.41199 4.7516,-1.23596 0.9705,-0.82397 1.4557,-2.17895 1.4557,-4.06494 0,-1.86768 -0.4852,-3.20435 -1.4557,-4.01001 -0.9521,-0.80567 -2.536,-1.2085 -4.7516,-1.2085 h -4.4494 v 10.51941 z m -4.4494,7.30591 v 15.51819 h -10.5744 v -41.00647 h 16.1499 c 5.4017,0 9.3568,0.90637 11.8653,2.71911 2.5269,1.81275 3.7903,4.67835 3.7903,8.5968 0,2.70997 -0.6592,4.9347 -1.9776,6.6742 -1.3,1.7395 -3.2684,3.02124 -5.9051,3.84521 1.4465,0.32959 2.7374,1.08033 3.8727,2.2522 1.1535,1.15357 2.3162,2.91138 3.4881,5.27344 l 4.4769,9.08224 -2.6329,2.56327 h -7.3646 l -4.9988,-10.18982 c -1.0071,-2.05079 -2.0325,-3.45154 -3.0762,-4.20227 -1.0254,-0.75073 -2.3987,-1.1261 -4.1198,-1.1261 z m 4.5423,-40.01335 c -19.32997,-10e-6 -35.00002,15.67003 -35.00002,35 0,19.32997 15.67005,35.00001 35.00002,35 19.33,0 35,-15.67003 35,-35 0,-19.32997 -15.67,-35 -35,-35 z m 0,7.5 c 15.1878,0 27.5,12.31217 27.5,27.5 0,15.18783 -12.3122,27.5 -27.5,27.5 -15.1878,1e-5 -27.50002,-12.31216 -27.50002,-27.5 0,-15.18784 12.31222,-27.50001 27.50002,-27.5 z"
           style="font-style:normal;font-variant:normal;font-weight:bold;font-stretch:normal;font-size:56.25px;font-family:'DejaVu Sans';-inkscape-font-specification:'DejaVu Sans Bold';fill:#0000ff;fill-opacity:1"
           id="path4170" />
      </g>
      <path
         id="rect4173"
         transform="translate(0,308.26772)"
         d="m 190.50586,276.52344 v 137 38 h 38 112 v -38 h -112 v -137 z m 165.39062,0 v 137 38 h 38 112 v -38 h -112 v -137 z m 123.38868,0 v 38 h 56 v 137 h 38 v -137 h 56 v -38 h -56 -38 z m 352.7832,0 v 174.82617 h 38 V 384.0957 h 16.47461 l 56.27148,67.42774 h 36.10743 v -16.04102 l -58.73438,-70.38086 58.73438,-73.57031 v -15.00781 h -36.64454 l -55.54296,69.57226 h -16.66602 v -69.57226 z m -793.208985,0.17383 c -19.26307,-7e-5 -34.8789063,15.66999 -34.8789062,35 v 37.85742 101.96875 H 41.753906 v -55.82617 h 94.835934 v 55.82617 h 38 V 307.76172 C 172.63992,290.2862 157.87506,276.6982 139.93945,276.69727 H 111.125 61.839844 Z m 640.931645,0 c -19.26307,-7e-5 -34.87891,15.66999 -34.87891,35 v 37.85742 101.96875 h 37.77344 v -55.82617 h 94.83593 v 55.82617 h 38 V 307.76172 C 813.57156,290.2862 798.8067,276.6982 780.87109,276.69727 H 752.05664 702.77148 Z M 41.753906,314.52344 h 94.835934 v 43.17383 H 41.753906 Z m 640.931644,0 h 94.83593 v 43.17383 h -94.83593 z"
         style="fill:#0000ff;fill-opacity:1;fill-rule:evenodd;stroke:none;stroke-width:1px;stroke-linecap:butt;stroke-linejoin:miter;stroke-opacity:1"
         inkscape:connector-curvature="0" />
    </g>
  </g>
</svg>
